G04 Layer: TopSolderMaskLayer*
G04 EasyEDA v6.4.25, 2021-11-13T16:36:47+01:00*
G04 fbf2b491685049a8bfad643619c64f1f,1776d3e4676a440d9a66004cab294cc2,10*
G04 Gerber Generator version 0.2*
G04 Scale: 100 percent, Rotated: No, Reflected: No *
G04 Dimensions in millimeters *
G04 leading zeros omitted , absolute positions ,4 integer and 5 decimal *
%FSLAX45Y45*%
%MOMM*%

%ADD26C,2.2032*%
%ADD27C,2.6032*%
%ADD29C,1.8031*%
%ADD30C,1.7112*%

%LPD*%
G36*
X4389881Y2439923D02*
G01*
X4389881Y2660142D01*
X4610100Y2660142D01*
X4610100Y2439923D01*
G37*
D26*
G01*
X4500001Y3050009D03*
G01*
X437200Y716000D03*
G01*
X1199200Y716000D03*
D27*
G01*
X4600000Y1950001D03*
G01*
X4600000Y1450002D03*
G01*
X4600000Y950003D03*
G36*
X862837Y1005331D02*
G01*
X862837Y1185671D01*
X1043178Y1185671D01*
X1043178Y1005331D01*
G37*
D29*
G01*
X953099Y1349502D03*
G01*
X953099Y1603502D03*
G01*
X953099Y1857502D03*
G01*
X953099Y2111502D03*
G01*
X953099Y2365502D03*
G01*
X953099Y2619502D03*
G01*
X191099Y2619502D03*
G01*
X191099Y2365502D03*
G01*
X191099Y2111502D03*
G01*
X191099Y1857502D03*
G01*
X191099Y1603502D03*
G01*
X191099Y1349502D03*
G01*
X191099Y1095502D03*
D30*
G01*
X3802700Y2621000D03*
G01*
X3802700Y2367000D03*
G01*
X3802700Y2113000D03*
G01*
X3802700Y1859000D03*
G01*
X3802700Y1605000D03*
G01*
X3802700Y1351000D03*
G01*
X3802700Y1097000D03*
G01*
X1516700Y2621000D03*
G01*
X1516700Y2367000D03*
G01*
X1516700Y2113000D03*
G01*
X1516700Y1859000D03*
G01*
X1516700Y1605000D03*
G01*
X1516700Y1351000D03*
G01*
X1516700Y1097000D03*
G01*
X3802700Y2875000D03*
G01*
X1516700Y2875000D03*
M02*
