M48
METRIC,LZ,000.000
;FILE_FORMAT=3:3
;TYPE=PLATED
;Layer: Drill PTH
;EasyEDA v6.4.25, 2021-11-13T16:36:47+01:00
;fbf2b491685049a8bfad643619c64f1f,1776d3e4676a440d9a66004cab294cc2,10
;Gerber Generator version 0.2
;Holesize 1 = 0.915 mm
T01C0.915
;Holesize 2 = 1.000 mm
T02C1.000
;Holesize 3 = 1.301 mm
T03C1.301
%
G05
G90
T01
X004372Y007160
X011992Y007160
T02
X009531Y010955G85X009531Y010955
X009531Y013495G85X009531Y013495
X009531Y016035G85X009531Y016035
X009531Y018575G85X009531Y018575
X009531Y021115G85X009531Y021115
X009531Y023655G85X009531Y023655
X009531Y026195G85X009531Y026195
X001911Y026195G85X001911Y026195
X001911Y023655G85X001911Y023655
X001911Y021115G85X001911Y021115
X001911Y018575G85X001911Y018575
X001911Y016035G85X001911Y016035
X001911Y013495G85X001911Y013495
X001911Y010955G85X001911Y010955
X038027Y026210G85X038027Y026210
X038027Y023670G85X038027Y023670
X038027Y021130G85X038027Y021130
X038027Y018590G85X038027Y018590
X038027Y016050G85X038027Y016050
X038027Y013510G85X038027Y013510
X038027Y010970G85X038027Y010970
X015167Y026210G85X015167Y026210
X015167Y023670G85X015167Y023670
X015167Y021130G85X015167Y021130
X015167Y018590G85X015167Y018590
X015167Y016050G85X015167Y016050
X015167Y013510G85X015167Y013510
X015167Y010970G85X015167Y010970
X038027Y028750G85X038027Y028750
X015167Y028750G85X015167Y028750
T03
X045000Y025500
X045000Y030500
X046000Y019500
X046000Y014500
X046000Y009500
M30
